<svg width="240" height="64" viewBox="0 0 240 64" fill="none" xmlns="http://www.w3.org/2000/svg">
  <rect x="4" y="8" width="48" height="48" rx="10" fill="#8C0E03"/>
  <path d="M16 41V23H28.8C35.4 23 39.6 26.5 39.6 32C39.6 37.5 35.4 41 28.8 41H16ZM23.1 35.3H28.2C31.8 35.3 34 34 34 32C34 29.9 31.8 28.7 28.2 28.7H23.1V35.3Z" fill="#F5F0E8"/>
  <path d="M66 21.3H74.3V42.7H66V21.3ZM77.7 21.3H86L92.7 32.3L99.4 21.3H107.7V42.7H100.2V32.5L95.3 40.1H90L85.1 32.5V42.7H77.7V21.3Z" fill="#8C0E03"/>
  <path d="M112.8 42.7V21.3H130.5V27.2H120.7V29.5H129.8V35H120.7V36.8H130.9V42.7H112.8Z" fill="#8C0E03"/>
  <path d="M136.1 42.7V21.3H144V36.5H153.1V42.7H136.1Z" fill="#8C0E03"/>
  <path d="M157.3 42.7V21.3H175V27.2H165.2V29.5H174.3V35H165.2V36.8H175.4V42.7H157.3Z" fill="#8C0E03"/>
  <rect x="185" y="25" width="14" height="14" rx="3" fill="#F28705"/>
  <rect x="201" y="25" width="14" height="14" rx="3" fill="#A42D2D"/>
  <rect x="217" y="25" width="14" height="14" rx="3" fill="#027373"/>
</svg>
