<?xml version="1.0" encoding="utf-8"?>
<svg xmlns="http://www.w3.org/2000/svg" width="2400" height="2400" viewBox="0 0 2400 2400">
  <defs>
    <style>
      .brand{font-family:"Aptos Display","Century Gothic","Bahnschrift","Segoe UI",sans-serif;font-weight:730;letter-spacing:0}
      .stroke{fill:none;stroke-linecap:round;stroke-linejoin:round}
    </style>
    <g id="logoMark">
      <g transform="translate(3 -32) scale(.76)">
        <g transform="translate(0 0) scale(.92) rotate(-90) translate(-145 -126)">
          <path d="M118 0C53 0 0 53 0 118s53 118 118 118" class="stroke" stroke="#FFFFFF" stroke-width="24" />
          <g transform="translate(0 22) translate(204 126) scale(.66 1) translate(-204 -126)">
            <path d="M184 164l62 58" class="stroke" stroke="#FFFFFF" stroke-width="24" />
            <path d="M118 30h78c58 0 94 29 94 67s-36 67-94 67h-78" class="stroke" stroke="#FFFFFF" stroke-width="24" />
          </g>
        </g>
      </g>
      <circle cx="44.95" cy="-37.4" r="4.4" fill="#0B0C0C" />
      <g transform="translate(0 -13.1) scale(.50) translate(-4 9)">
        <path d="M-14 -24C-10 -17 -4 -11 -4 -3C-4 4 -8 9 -14 9C-20 9 -24 4 -24 -3C-24 -11 -18 -17 -14 -24Z" fill="#FFFFFF" />
        <path d="M4 -29C9 -20 16 -13 16 -3C16 5 11 11 4 11C-3 11 -8 5 -8 -3C-8 -13 -1 -20 4 -29Z" fill="#FFFFFF" />
        <path d="M22 -24C26 -17 32 -11 32 -3C32 4 28 9 22 9C16 9 12 4 12 -3C12 -11 18 -17 22 -24Z" fill="#FFFFFF" />
      </g>
    </g>
  </defs>
  <rect width="2400" height="2400" fill="#0B0C0C" />
  <g transform="translate(1200 1285) scale(4.15)">
    <use href="#logoMark" />
  </g>
</svg>